<svg xmlns="http://www.w3.org/2000/svg" viewBox="0 0 256 256" role="img" aria-labelledby="title desc">
  <title id="title">BetChess icon</title>
  <desc id="desc">A chess knight inside a casino chip with a betting arrow.</desc>

  <rect width="256" height="256" rx="54" fill="#12161e" />

  <circle cx="128" cy="128" r="90" fill="#1d2430" stroke="#d7b16c" stroke-width="14" />
  <circle cx="128" cy="128" r="76" fill="none" stroke="#f4f0e6" stroke-width="7" stroke-dasharray="8 18" stroke-linecap="round" opacity="0.82" />
  <circle cx="128" cy="128" r="64" fill="#141a24" />

  <path
    d="M93 178h70v-12l-13-20c8-10 13-23 13-37 0-33-21-56-51-56-21 0-37 10-49 28l18 15c6-10 15-15 25-15 14 0 24 10 24 23 0 12-7 22-19 29l-14 8 11 19H93z"
    fill="#f4f0e6"
  />
  <circle cx="127" cy="89" r="6" fill="#141a24" />
  <path d="M127 139c12 0 25-6 35-17" fill="none" stroke="#6bc2ad" stroke-width="9" stroke-linecap="round" />

  <g transform="translate(166 162)">
    <circle cx="0" cy="0" r="28" fill="#d7b16c" />
    <circle cx="0" cy="0" r="19" fill="#141a24" />
    <path d="M-10 9 L5 -6" fill="none" stroke="#6bc2ad" stroke-width="7" stroke-linecap="round" />
    <path d="M0 -10 L9 -10 L9 -1" fill="none" stroke="#6bc2ad" stroke-width="7" stroke-linecap="round" stroke-linejoin="round" />
  </g>
</svg>
