<svg xmlns="http://www.w3.org/2000/svg" viewBox="0 0 256 256" role="img" aria-labelledby="title desc">
  <title id="title">BetChess icon</title>
  <desc id="desc">A knight chess piece paired with a betting chip.</desc>

  <rect width="256" height="256" rx="46" fill="#151922" />
  <rect x="16" y="16" width="224" height="224" rx="34" fill="none" stroke="#d7b16c" stroke-opacity="0.3" stroke-width="8" />

  <circle cx="188" cy="70" r="27" fill="none" stroke="#d7b16c" stroke-width="12" />
  <circle cx="188" cy="70" r="16" fill="none" stroke="#f4f0e6" stroke-width="5" stroke-dasharray="3 7" stroke-linecap="round" />

  <path
    d="M76 214h104v-18l-18-28c9-12 14-27 14-43 0-39-25-68-61-68-26 0-45 12-59 34l22 18c7-12 18-18 31-18 17 0 29 12 29 29 0 14-8 26-22 34l-17 9 15 27H76z"
    fill="#f4f0e6"
  />
  <circle cx="118" cy="100" r="7" fill="#151922" />
  <path d="M119 154c14 0 30-7 42-20" fill="none" stroke="#6bc2ad" stroke-width="10" stroke-linecap="round" />
  <path d="M92 216h94" fill="none" stroke="#6bc2ad" stroke-width="12" stroke-linecap="round" />
</svg>
