<svg xmlns="http://www.w3.org/2000/svg" viewBox="0 0 256 256" role="img" aria-labelledby="title desc">
  <title id="title">BetChess icon</title>
  <desc id="desc">A knight chess piece paired with betting chips.</desc>
  <defs>
    <linearGradient id="bg" x1="24" y1="24" x2="232" y2="232" gradientUnits="userSpaceOnUse">
      <stop offset="0" stop-color="#131a3c" />
      <stop offset="0.55" stop-color="#0d1027" />
      <stop offset="1" stop-color="#070914" />
    </linearGradient>
    <linearGradient id="ring" x1="52" y1="44" x2="214" y2="212" gradientUnits="userSpaceOnUse">
      <stop offset="0" stop-color="#39d0c8" />
      <stop offset="0.5" stop-color="#ffcf5a" />
      <stop offset="1" stop-color="#ff7a59" />
    </linearGradient>
    <linearGradient id="chip" x1="152" y1="52" x2="210" y2="126" gradientUnits="userSpaceOnUse">
      <stop offset="0" stop-color="#ffcf5a" />
      <stop offset="1" stop-color="#ff7a59" />
    </linearGradient>
  </defs>

  <rect width="256" height="256" rx="60" fill="url(#bg)" />
  <rect x="10" y="10" width="236" height="236" rx="50" fill="none" stroke="url(#ring)" stroke-width="8" />

  <g opacity="0.88">
    <circle cx="186" cy="78" r="34" fill="none" stroke="url(#chip)" stroke-width="12" />
    <circle cx="186" cy="78" r="20" fill="none" stroke="#fff5cf" stroke-width="6" stroke-dasharray="4 6" />
  </g>

  <g transform="translate(38 34)">
    <path
      d="M56 148c4-12 8-27 8-40 0-35-20-45-20-69 0-19 14-31 35-31 16 0 27 7 43 21l20-1 7 24-23 16c11 11 17 26 17 43 0 13-4 25-12 37l20 28v16H56v-14l24-30-10-20H56z"
      fill="#f5f0ff"
    />
    <circle cx="87" cy="40" r="8" fill="#131a3c" />
    <path d="M104 130c22-1 33-15 33-32 0-11-5-21-13-28-7 12-18 20-33 24 9 7 13 19 13 36z" fill="#39d0c8" opacity="0.8" />
  </g>

  <g transform="translate(124 144)">
    <rect x="0" y="0" width="34" height="34" rx="8" fill="#f7d794" />
    <rect x="34" y="0" width="34" height="34" rx="8" fill="#8854d0" opacity="0.2" />
    <rect x="0" y="34" width="34" height="34" rx="8" fill="#8854d0" opacity="0.2" />
    <rect x="34" y="34" width="34" height="34" rx="8" fill="#f7d794" />
  </g>
</svg>
